<svg width="15" height="20" viewBox="0 0 15 20" fill="none" xmlns="http://www.w3.org/2000/svg">
<path id="Vector Pin" d="M4.6383 0.274825C4.36889 0.274106 4.11022 0.37976 3.91918 0.568552C3.72814 0.757344 3.62036 1.01382 3.61956 1.28156C3.62095 1.42461 3.65278 1.56574 3.71296 1.69568C4.36242 3.52923 4.40768 4.88226 3.99243 6.12034C3.52042 7.50335 2.77037 8.88423 1.04613 10.5978C0.90497 10.7394 0.808857 10.9192 0.769765 11.1147C0.730674 11.3103 0.750332 11.5129 0.82629 11.6974C0.903325 11.8819 1.03363 12.0395 1.20075 12.1505C1.36787 12.2614 1.56431 12.3206 1.76528 12.3207L6.42505 12.3207L7.51204 19.8798L8.59903 12.3207L13.2574 12.3207C13.3913 12.3213 13.5241 12.2948 13.6475 12.2429C13.7718 12.1922 13.8845 12.1186 13.9779 12.0258C14.0713 11.933 14.1453 11.8209 14.1963 11.6974C14.2738 11.5133 14.2944 11.3104 14.2556 11.1146C14.2167 10.9188 14.12 10.7389 13.9779 10.5978C12.2537 8.88423 11.5029 7.50407 11.0446 6.13604C10.6286 4.89868 10.6739 3.54566 11.324 1.71139C11.3845 1.58182 11.4161 1.44081 11.4167 1.29799C11.4159 1.03024 11.3082 0.773765 11.1171 0.584974C10.9261 0.396182 10.6674 0.290529 10.398 0.291247L4.6383 0.274825Z" fill="#DCE1DE"/>
</svg>
